<svg width="24" height="24" viewBox="0 0 24 24" fill="none" xmlns="http://www.w3.org/2000/svg">
<path d="M12 22C17.5229 22 22 17.5229 22 12C22 6.47715 17.5229 2 12 2C6.47715 2 2 6.47715 2 12C2 17.5229 6.47715 22 12 22Z" stroke="#40A3FF" stroke-width="2" stroke-linejoin="round"/>
<path d="M10.8236 16.0487L10.2189 13.9838H7.54091L6.94699 16.0487H5.5L8.02684 7.95128H9.79779L12.303 16.0487H10.8236ZM8.90152 9.34339H8.84752L7.88646 12.6729H9.87338L8.90152 9.34339Z" fill="#40A3FF"/>
<path d="M15.2929 17V15.9675C14.7457 15.9211 14.285 15.7858 13.9107 15.5615C13.5363 15.3295 13.2124 15.0433 12.9388 14.703L13.8135 13.8445C14.0222 14.1075 14.2562 14.3241 14.5154 14.4942C14.7745 14.6566 15.0661 14.761 15.39 14.8074V12.4524C14.5982 12.2746 14.0258 12.0039 13.6731 11.6404C13.3275 11.2691 13.1548 10.7974 13.1548 10.2251C13.1548 9.60634 13.3419 9.11137 13.7163 8.74014C14.0906 8.36118 14.6162 8.12916 15.2929 8.04408V7H16.3619V8.04408C16.8154 8.09822 17.2042 8.2181 17.5281 8.40371C17.8593 8.58933 18.1473 8.84455 18.392 9.16937L17.5065 9.99304C17.3626 9.80742 17.1898 9.64501 16.9882 9.5058C16.7938 9.36659 16.5527 9.26605 16.2647 9.20418V11.3619C17.035 11.5553 17.6001 11.826 17.9601 12.174C18.32 12.5143 18.5 12.9861 18.5 13.5893C18.5 14.1848 18.32 14.6991 17.9601 15.1323C17.6001 15.5576 17.0674 15.8244 16.3619 15.9327V17H15.2929ZM14.4614 10.1671C14.4614 10.4377 14.5334 10.6466 14.6773 10.7935C14.8285 10.9404 15.0661 11.0603 15.39 11.1531V9.19258C14.7709 9.30858 14.4614 9.63341 14.4614 10.1671ZM17.2042 13.6937C17.2042 13.4617 17.1358 13.2606 16.999 13.0905C16.8694 12.9126 16.6247 12.7695 16.2647 12.6613V14.7958C16.5671 14.7262 16.7974 14.5947 16.9558 14.4014C17.1214 14.2003 17.2042 13.9644 17.2042 13.6937Z" fill="#40A3FF"/>
</svg>
