<svg width="24" height="24" viewBox="0 0 24 24" fill="none" xmlns="http://www.w3.org/2000/svg">
<path d="M12 22C17.5229 22 22 17.5229 22 12C22 6.47715 17.5229 2 12 2C6.47715 2 2 6.47715 2 12C2 17.5229 6.47715 22 12 22Z" stroke="#40A3FF" stroke-width="2" stroke-linejoin="round"/>
<path d="M5.50507 8.56626H9.34762C9.68865 8.56626 9.99399 8.61321 10.2636 8.70712C10.5412 8.80103 10.7752 8.93106 10.9655 9.0972C11.1559 9.26335 11.2986 9.46923 11.3938 9.71484C11.4969 9.95322 11.5485 10.2169 11.5485 10.5058C11.5485 10.7948 11.5048 11.0404 11.4176 11.2427C11.3383 11.4377 11.2273 11.6002 11.0845 11.7303C10.9497 11.8603 10.7911 11.9578 10.6086 12.0228C10.4342 12.0878 10.2517 12.124 10.0614 12.1312V12.1962C10.2438 12.1962 10.4381 12.2287 10.6443 12.2937C10.8585 12.3587 11.0528 12.4635 11.2273 12.608C11.4097 12.7452 11.5604 12.9258 11.6793 13.1497C11.7983 13.3665 11.8578 13.6373 11.8578 13.9624C11.8578 14.2658 11.8023 14.5511 11.6912 14.8184C11.5881 15.0785 11.4414 15.306 11.251 15.5011C11.0607 15.6961 10.8347 15.8514 10.573 15.967C10.3112 16.0754 10.0257 16.1295 9.71641 16.1295H5.50507V8.56626ZM7.0754 14.9159H9.26434C9.56572 14.9159 9.79968 14.8473 9.96623 14.7101C10.1328 14.5656 10.2161 14.3597 10.2161 14.0924V13.724C10.2161 13.4567 10.1328 13.2509 9.96623 13.1064C9.79968 12.9619 9.56572 12.8897 9.26434 12.8897H7.0754V14.9159ZM7.0754 11.7194H9.01452C9.30003 11.7194 9.5221 11.6508 9.68072 11.5136C9.83934 11.3691 9.91865 11.1704 9.91865 10.9176V10.5817C9.91865 10.3289 9.83934 10.1338 9.68072 9.99656C9.5221 9.85209 9.30003 9.77985 9.01452 9.77985H7.0754V11.7194Z" fill="#40A3FF"/>
<path d="M15.4634 17.0181V16.0537C14.8607 16.0104 14.3531 15.8839 13.9407 15.6744C13.5283 15.4577 13.1714 15.1905 12.87 14.8726L13.8336 14.0708C14.0636 14.3164 14.3214 14.5186 14.6069 14.6776C14.8924 14.8293 15.2136 14.9268 15.5705 14.9701V12.7705C14.6981 12.6043 14.0676 12.3515 13.6789 12.012C13.2983 11.6653 13.1079 11.2246 13.1079 10.69C13.1079 10.1121 13.3141 9.64982 13.7265 9.30308C14.1389 8.94912 14.7179 8.7324 15.4634 8.65294V7.67773H16.6412V8.65294C17.1408 8.70351 17.5691 8.81548 17.926 8.98885C18.2908 9.16222 18.608 9.4006 18.8777 9.704L17.9022 10.4733C17.7436 10.3 17.5532 10.1483 17.3312 10.0182C17.117 9.88821 16.8513 9.7943 16.5341 9.73651V11.7519C17.3827 11.9325 18.0053 12.1854 18.4018 12.5104C18.7984 12.8283 18.9967 13.2689 18.9967 13.8324C18.9967 14.3886 18.7984 14.869 18.4018 15.2735C18.0053 15.6708 17.4184 15.9201 16.6412 16.0212V17.0181H15.4634ZM14.5474 10.6359C14.5474 10.8887 14.6267 11.0837 14.7853 11.221C14.9519 11.3582 15.2136 11.4702 15.5705 11.5569V9.72567C14.8884 9.83403 14.5474 10.1374 14.5474 10.6359ZM17.5691 13.9299C17.5691 13.7132 17.4937 13.5254 17.3431 13.3665C17.2003 13.2003 16.9306 13.0667 16.5341 12.9655V14.9593C16.8672 14.8943 17.121 14.7715 17.2955 14.5909C17.4779 14.4031 17.5691 14.1827 17.5691 13.9299Z" fill="#40A3FF"/>
</svg>
