<svg width="24" height="24" viewBox="0 0 24 24" fill="none" xmlns="http://www.w3.org/2000/svg">
<path d="M12 22C17.5229 22 22 17.5229 22 12C22 6.47715 17.5229 2 12 2C6.47715 2 2 6.47715 2 12C2 17.5229 6.47715 22 12 22Z" stroke="#FF6868" stroke-width="2" stroke-linejoin="round"/>
<path d="M6.88559 14.5C6.52101 14.5 6.19078 14.4492 5.89489 14.3476C5.60429 14.2415 5.35332 14.0845 5.14197 13.8767C4.9359 13.669 4.77739 13.4127 4.66644 13.108C4.55548 12.7987 4.5 12.4409 4.5 12.0346C4.5 11.6283 4.55548 11.2682 4.66644 10.9543C4.77739 10.6357 4.9359 10.3703 5.14197 10.1579C5.35332 9.9409 5.60429 9.77701 5.89489 9.6662C6.19078 9.5554 6.52101 9.5 6.88559 9.5C7.38225 9.5 7.79438 9.59234 8.12197 9.77701C8.44956 9.96168 8.7111 10.241 8.9066 10.615L8.01101 11.0305C7.93176 10.8135 7.80231 10.6404 7.62266 10.5111C7.44301 10.3772 7.19732 10.3102 6.88559 10.3102C6.49459 10.3102 6.18285 10.4257 5.95037 10.6565C5.72317 10.8873 5.60957 11.2105 5.60957 11.626V12.3878C5.60957 12.8079 5.72317 13.1311 5.95037 13.3573C6.18285 13.5789 6.49459 13.6898 6.88559 13.6898C7.19732 13.6898 7.45094 13.6159 7.64644 13.4681C7.84722 13.3204 7.99252 13.138 8.08234 12.9211L8.93037 13.3573C8.72959 13.7175 8.46277 13.9991 8.12989 14.2022C7.79702 14.4007 7.38225 14.5 6.88559 14.5Z" fill="#FF6868"/>
<path d="M13.2002 14.4169L12.7564 13.1842H10.7908L10.3549 14.4169H9.2929L11.1475 9.5831H12.4473L14.286 14.4169H13.2002ZM11.7894 10.4141H11.7498L11.0444 12.4017H12.5027L11.7894 10.4141Z" fill="#FF6868"/>
<path d="M15.1013 9.5831H17.1144C17.4737 9.5831 17.7987 9.63389 18.0893 9.73546C18.3851 9.83703 18.6361 9.98938 18.8422 10.1925C19.0535 10.391 19.2147 10.6427 19.3256 10.9474C19.4419 11.2475 19.5 11.5983 19.5 12C19.5 12.4017 19.4419 12.7548 19.3256 13.0596C19.2147 13.3596 19.0535 13.6113 18.8422 13.8144C18.6361 14.0129 18.3851 14.163 18.0893 14.2645C17.7987 14.3661 17.4737 14.4169 17.1144 14.4169H15.1013V9.5831ZM17.1144 13.6066C17.5054 13.6066 17.8145 13.5074 18.0417 13.3089C18.2742 13.1057 18.3904 12.7964 18.3904 12.3809V11.6191C18.3904 11.2036 18.2742 10.8966 18.0417 10.6981C17.8145 10.4949 17.5054 10.3934 17.1144 10.3934H16.1475V13.6066H17.1144Z" fill="#FF6868"/>
</svg>
