<svg width="24" height="24" viewBox="0 0 24 24" fill="none" xmlns="http://www.w3.org/2000/svg">
<path d="M12 22C17.5229 22 22 17.5229 22 12C22 6.47715 17.5229 2 12 2C6.47715 2 2 6.47715 2 12C2 17.5229 6.47715 22 12 22Z" stroke="#FF6868" stroke-width="2" stroke-linejoin="round"/>
<path d="M6.80127 17V7H13.2094V8.67622H8.68518V11.0974H12.6243V12.7736H8.68518V17H6.80127Z" fill="#FF6868"/>
<path d="M14.5339 17V9.52149H16.3608V11.0688H16.4321C16.4797 10.8682 16.551 10.6772 16.6462 10.4957C16.7509 10.3047 16.8841 10.1375 17.0458 9.99427C17.2076 9.851 17.3979 9.73639 17.6167 9.65043C17.845 9.56447 18.1067 9.52149 18.4017 9.52149H18.8013V11.255H18.2304C17.6119 11.255 17.1457 11.3457 16.8317 11.5272C16.5177 11.7087 16.3608 12.0048 16.3608 12.4155V17H14.5339Z" fill="#FF6868"/>
</svg>
