<svg width="24" height="24" viewBox="0 0 24 24" fill="none" xmlns="http://www.w3.org/2000/svg">
<path d="M12 22C17.5229 22 22 17.5229 22 12C22 6.47715 17.5229 2 12 2C6.47715 2 2 6.47715 2 12C2 17.5229 6.47715 22 12 22Z" stroke="#FFCD04" stroke-width="2" stroke-linejoin="round"/>
<path d="M6.2865 8H7.77918V12.751H7.83748L8.64213 11.7497L10.0065 10.3222H11.6975L9.59838 12.474L11.919 15.8828H10.1465L8.58382 13.3901L7.77918 14.1891V15.8828H6.2865V8Z" fill="#FFCD04"/>
<path d="M12.8347 15.8828V10.3222H14.3274V11.4727H14.3857C14.4246 11.3236 14.4829 11.1815 14.5606 11.0466C14.6462 10.9046 14.755 10.7803 14.8872 10.6738C15.0193 10.5672 15.1748 10.482 15.3536 10.4181C15.5402 10.3542 15.754 10.3222 15.995 10.3222H16.3215V11.6112H15.8551C15.3497 11.6112 14.9688 11.6787 14.7122 11.8136C14.4557 11.9485 14.3274 12.1687 14.3274 12.474V15.8828H12.8347Z" fill="#FFCD04"/>
<path d="M17.3536 16C17.0348 16 16.7977 15.929 16.6422 15.787C16.4945 15.6378 16.4207 15.4496 16.4207 15.2224V15.0306C16.4207 14.8034 16.4945 14.6152 16.6422 14.466C16.7977 14.3169 17.0348 14.2423 17.3536 14.2423C17.6801 14.2423 17.9172 14.3169 18.0649 14.466C18.2126 14.6152 18.2865 14.8034 18.2865 15.0306V15.2224C18.2865 15.4496 18.2126 15.6378 18.0649 15.787C17.9172 15.929 17.6801 16 17.3536 16Z" fill="#FFCD04"/>
</svg>
