<svg width="24" height="24" viewBox="0 0 24 24" fill="none" xmlns="http://www.w3.org/2000/svg">
<path d="M12 22C17.5229 22 22 17.5229 22 12C22 6.47715 17.5229 2 12 2C6.47715 2 2 6.47715 2 12C2 17.5229 6.47715 22 12 22Z" stroke="#40A3FF" stroke-width="2" stroke-linejoin="round"/>
<path d="M12.0809 17.8931C11.3268 17.8931 10.6447 17.7712 10.0347 17.5274C9.42476 17.2836 8.9035 16.9282 8.47097 16.4609C8.03843 15.9836 7.70017 15.4046 7.45618 14.7241C7.22328 14.0436 7.10683 13.2666 7.10683 12.3931C7.10683 11.5196 7.22328 10.7426 7.45618 10.062C7.70017 9.38152 8.03843 8.80766 8.47097 8.34044C8.9035 7.86306 9.42476 7.50248 10.0347 7.25872C10.6447 7.01495 11.3268 6.89307 12.0809 6.89307C12.6133 6.89307 13.0791 6.94893 13.4784 7.06066C13.8887 7.16223 14.2436 7.30442 14.5431 7.48725C14.8536 7.65992 15.1198 7.86814 15.3416 8.1119C15.5745 8.34551 15.7797 8.59944 15.9571 8.87368L14.3601 9.89445C14.1272 9.4577 13.8277 9.12252 13.4617 8.88891C13.0957 8.64514 12.6355 8.52326 12.0809 8.52326C11.4377 8.52326 10.8887 8.70101 10.434 9.0565C9.99038 9.41199 9.69093 9.89953 9.53566 10.5191H13.495V11.7836H9.41921V13.0025H13.4784V14.267H9.53566C9.69093 14.9069 9.99038 15.3995 10.434 15.7449C10.8776 16.0902 11.4266 16.2629 12.0809 16.2629C12.6466 16.2629 13.1235 16.1359 13.5116 15.882C13.9109 15.6281 14.2436 15.2573 14.5098 14.7698L16.1068 15.8363C15.9405 16.1004 15.7408 16.3594 15.5079 16.6133C15.275 16.8571 14.9922 17.0754 14.6595 17.2684C14.3379 17.4614 13.9608 17.6137 13.5283 17.7255C13.1068 17.8372 12.6244 17.8931 12.0809 17.8931Z" fill="#40A3FF"/>
</svg>
