<svg width="24" height="24" viewBox="0 0 24 24" fill="none" xmlns="http://www.w3.org/2000/svg">
<path d="M12 22C17.5229 22 22 17.5229 22 12C22 6.47715 17.5229 2 12 2C6.47715 2 2 6.47715 2 12C2 17.5229 6.47715 22 12 22Z" stroke="#40A3FF" stroke-width="2" stroke-linejoin="round"/>
<path d="M8.464 17.36V15.36C8.88 15.168 9.19467 14.896 9.408 14.544C9.62133 14.192 9.728 13.7867 9.728 13.328C9.728 13.104 9.70667 12.9013 9.664 12.72H8V11.04H9.072C8.98667 10.7733 8.90667 10.5013 8.832 10.224C8.75733 9.94667 8.72 9.64267 8.72 9.312C8.72 8.82133 8.81067 8.37333 8.992 7.968C9.17333 7.552 9.42933 7.2 9.76 6.912C10.1013 6.624 10.512 6.4 10.992 6.24C11.4827 6.08 12.0267 6 12.624 6C13.488 6 14.2133 6.16533 14.8 6.496C15.3973 6.816 15.8987 7.28533 16.304 7.904L14.768 8.992C14.48 8.58667 14.1653 8.29333 13.824 8.112C13.4933 7.92 13.104 7.824 12.656 7.824C12.08 7.824 11.6373 7.97867 11.328 8.288C11.0187 8.59733 10.864 9.04 10.864 9.616C10.864 9.88267 10.8907 10.1333 10.944 10.368C10.9973 10.592 11.0667 10.816 11.152 11.04H14.384V12.72H11.76C11.7707 12.8053 11.776 12.8907 11.776 12.976C11.7867 13.0613 11.792 13.1467 11.792 13.232C11.792 13.7973 11.6587 14.2667 11.392 14.64C11.136 15.0027 10.864 15.2693 10.576 15.44V15.568H16.048V17.36H8.464Z" fill="#40A3FF"/>
</svg>
