<svg width="24" height="24" viewBox="0 0 24 24" fill="none" xmlns="http://www.w3.org/2000/svg">
<path d="M12 22C17.5229 22 22 17.5229 22 12C22 6.47715 17.5229 2 12 2C6.47715 2 2 6.47715 2 12C2 17.5229 6.47715 22 12 22Z" stroke="#FF6868" stroke-width="2" stroke-linejoin="round"/>
<path d="M12.7804 11.03V15.037C12.7804 16.388 13.1514 16.8383 14.6098 16.8383C14.8913 16.8383 15.8635 16.8383 16.1578 16.8383C17.4627 16.8383 17.8465 16.2379 18 14.1478C17.5906 14.0554 16.9126 13.8129 16.58 13.5704C16.5288 15.2448 16.452 15.5335 16.0171 15.5335C15.7868 15.5335 15.032 15.5335 14.8529 15.5335C14.4435 15.5335 14.3667 15.4758 14.3667 15.0254V11.03H12.7804ZM6.28145 10.1409V11.4919H17.7569V10.1409H6.28145ZM7.44563 7V8.33949H16.58V7H7.44563ZM9.21109 11.2032C9.05757 13.2356 8.8145 14.933 6 15.8799C6.34542 16.1455 6.78038 16.6536 6.9467 17C10.1706 15.8337 10.6567 13.7436 10.8614 11.2032H9.21109Z" fill="#FF6868"/>
</svg>
