<svg width="24" height="24" viewBox="0 0 24 24" fill="none" xmlns="http://www.w3.org/2000/svg">
<path d="M12 22C17.5229 22 22 17.5229 22 12C22 6.47715 17.5229 2 12 2C6.47715 2 2 6.47715 2 12C2 17.5229 6.47715 22 12 22Z" stroke="#E5E7EB" stroke-width="2" stroke-linejoin="round"/>
<path d="M19.774 16.9107L18.3749 15.7974C18.3861 15.7199 18.3811 15.6437 18.3811 15.5625L18.3812 7.4375C18.3812 6.53994 17.6648 5.8125 16.7808 5.8125H7.1783C6.84071 5.8125 6.51063 5.93895 6.24506 6.1441L4.97049 5.12982C4.70868 4.92236 4.33283 4.96836 4.12776 5.23339C3.9234 5.49842 3.96912 5.88156 4.22973 6.089L19.0338 17.8705C19.1438 17.9568 19.2739 18 19.3814 18C19.5595 18 19.7357 17.9199 19.8542 17.7667C20.0816 17.5023 20.034 17.1189 19.774 16.9107ZM17.1808 14.8643L16.2778 14.1457L13.7597 10.6723C13.6974 10.5555 13.5549 10.4844 13.4024 10.4844C13.2495 10.4844 13.1068 10.5547 13.022 10.6717L12.6247 11.2207L10.5491 9.57031C10.5542 9.47129 10.6017 9.37227 10.6017 9.26563C10.6017 8.59252 10.0643 8.04688 9.40136 8.04688C9.19291 8.04688 9.00001 8.10568 8.82922 8.20067L7.36085 7.03125H16.8032C17.0238 7.03125 17.2033 7.2135 17.2033 7.4375V14.8643H17.1808ZM10.3566 14.3514L9.42912 13.1809C9.34307 13.0722 9.20571 13.008 9.05977 13.008C8.91369 13.008 8.77645 13.0722 8.69018 13.1809L6.8017 15.5628V15.5628L6.7782 9.68457L5.5779 8.72938L5.60015 15.5625C5.60015 16.4601 6.31658 17.1875 7.20056 17.1875H16.2303L11.2016 13.1859L10.3566 14.3514Z" fill="#E5E7EB"/>
</svg>
