<svg width="24" height="24" viewBox="0 0 24 24" fill="none" xmlns="http://www.w3.org/2000/svg">
<path d="M12 22C17.5229 22 22 17.5229 22 12C22 6.47715 17.5229 2 12 2C6.47715 2 2 6.47715 2 12C2 17.5229 6.47715 22 12 22Z" stroke="#FFCD04" stroke-width="2" stroke-linejoin="round"/>
<path d="M7.8023 14.9955H6.40924V8H9.7336C10.0713 8 10.3738 8.05011 10.6412 8.15033C10.9086 8.25056 11.1337 8.39755 11.3166 8.59131C11.5066 8.7784 11.6508 9.00557 11.7493 9.27283C11.8549 9.54009 11.9076 9.83742 11.9076 10.1648C11.9076 10.6459 11.7915 11.0601 11.5594 11.4076C11.3342 11.755 10.993 12.0022 10.5357 12.1492L12.0448 14.9955H10.4934L9.12149 12.2996H7.8023V14.9955ZM9.5964 11.1871C9.86376 11.1871 10.0748 11.1203 10.2296 10.9866C10.3844 10.8463 10.4618 10.6492 10.4618 10.3953V9.9343C10.4618 9.6804 10.3844 9.48664 10.2296 9.35301C10.0748 9.21938 9.86376 9.15256 9.5964 9.15256H7.8023V11.1871H9.5964Z" fill="#FFCD04"/>
<path d="M13.333 9.76392H14.6839V10.6258H14.7261C14.8246 10.3252 15.011 10.088 15.2854 9.91425C15.5598 9.73385 15.8799 9.64365 16.2458 9.64365C16.9493 9.64365 17.484 9.88085 17.8499 10.3552C18.2228 10.8229 18.4092 11.4944 18.4092 12.3697C18.4092 13.2517 18.2228 13.9298 17.8499 14.4042C17.484 14.8786 16.9493 15.1158 16.2458 15.1158C15.8799 15.1158 15.5598 15.0256 15.2854 14.8452C15.018 14.6648 14.8316 14.4243 14.7261 14.1236H14.6839V17H13.333V9.76392ZM15.8131 14.0535C16.1649 14.0535 16.4498 13.9432 16.6679 13.7227C16.886 13.5022 16.9951 13.2049 16.9951 12.8307V11.9287C16.9951 11.5546 16.886 11.2572 16.6679 11.0367C16.4498 10.8096 16.1649 10.696 15.8131 10.696C15.4894 10.696 15.2186 10.7728 15.0005 10.9265C14.7894 11.0802 14.6839 11.284 14.6839 11.5379V13.2016C14.6839 13.4755 14.7894 13.686 15.0005 13.833C15.2186 13.98 15.4894 14.0535 15.8131 14.0535Z" fill="#FFCD04"/>
</svg>
