<svg width="24" height="24" viewBox="0 0 24 24" fill="none" xmlns="http://www.w3.org/2000/svg">
<path d="M12 22C17.5229 22 22 17.5229 22 12C22 6.47715 17.5229 2 12 2C6.47715 2 2 6.47715 2 12C2 17.5229 6.47715 22 12 22Z" stroke="#40A3FF" stroke-width="2" stroke-linejoin="round"/>
<path d="M10.1968 9.62178H11.8612V15.467H14.6538C14.9923 15.467 15.2603 15.362 15.4578 15.1519C15.6552 14.9417 15.754 14.6313 15.754 14.2206V7H17.4183V14.1633C17.4183 15.1184 17.1785 15.83 16.699 16.298C16.2194 16.766 15.5988 17 14.8372 17H10.1968V9.62178ZM7.41827 17V7H12.0727C12.8344 7 13.4502 7.234 13.9204 7.70201C14.3999 8.17001 14.6397 8.88157 14.6397 9.83668V14.3782H12.9754V9.77937C12.9754 8.94842 12.604 8.53295 11.8612 8.53295H9.08259V17H7.41827Z" fill="#40A3FF"/>
</svg>
