<svg width="24" height="24" viewBox="0 0 24 24" fill="none" xmlns="http://www.w3.org/2000/svg">
<path d="M12 22C17.5229 22 22 17.5229 22 12C22 6.47715 17.5229 2 12 2C6.47715 2 2 6.47715 2 12C2 17.5229 6.47715 22 12 22Z" stroke="#FFCD04" stroke-width="2" stroke-linejoin="round"/>
<path d="M12.816 18.168L9.92 14.296H8V12.776H10.864C11.9093 12.776 12.464 12.3173 12.528 11.4H8V9.88H12.528C12.496 9.368 12.336 9.016 12.048 8.824C11.7707 8.62133 11.376 8.52 10.864 8.52H8V7H16.432V8.52H13.344V8.584C13.5573 8.60533 13.7813 8.71733 14.016 8.92C14.2507 9.12267 14.4213 9.44267 14.528 9.88H16.432V11.4H14.576C14.48 12.0933 14.2347 12.68 13.84 13.16C13.456 13.6293 12.912 13.944 12.208 14.104L15.392 18.168H12.816Z" fill="#FFCD04"/>
</svg>
