<svg width="24" height="24" viewBox="0 0 24 24" fill="none" xmlns="http://www.w3.org/2000/svg">
<path d="M12 22C17.5229 22 22 17.5229 22 12C22 6.47715 17.5229 2 12 2C6.47715 2 2 6.47715 2 12C2 17.5229 6.47715 22 12 22Z" stroke="#0DC665" stroke-width="2" stroke-linejoin="round"/>
<path d="M12.0912 15.1247C11.4725 15.1247 10.9232 15.0233 10.4432 14.8207C9.9632 14.618 9.55786 14.3247 9.2272 13.9407C8.9072 13.5567 8.66186 13.098 8.4912 12.5647C8.32053 12.0207 8.2352 11.4127 8.2352 10.7407C8.2352 10.0687 8.32053 9.46601 8.4912 8.93267C8.66186 8.39934 8.9072 7.94601 9.2272 7.57267C9.55786 7.18867 9.9632 6.89534 10.4432 6.69267C10.9232 6.49001 11.4725 6.38867 12.0912 6.38867C12.9339 6.38867 13.6272 6.57534 14.1712 6.94867C14.7259 7.32201 15.1259 7.83934 15.3712 8.50067L13.6912 9.25267C13.5952 8.90067 13.4139 8.61267 13.1472 8.38867C12.8912 8.15401 12.5392 8.03667 12.0912 8.03667C11.5152 8.03667 11.0832 8.21801 10.7952 8.58067C10.5179 8.94334 10.3792 9.41801 10.3792 10.0047V11.5247C10.3792 12.1113 10.5179 12.586 10.7952 12.9487C11.0832 13.3007 11.5152 13.4767 12.0912 13.4767C12.5819 13.4767 12.9605 13.354 13.2272 13.1087C13.4939 12.8527 13.7019 12.538 13.8512 12.1647L15.4192 12.9167C15.1419 13.6527 14.7205 14.2073 14.1552 14.5807C13.5899 14.9433 12.9019 15.1247 12.0912 15.1247Z" fill="#0DC665"/>
<path d="M8 16.448H16.208V17.856H8V16.448Z" fill="#0DC665"/>
</svg>
