<svg width="24" height="24" viewBox="0 0 24 24" fill="none" xmlns="http://www.w3.org/2000/svg">
<path d="M12 22C17.5229 22 22 17.5229 22 12C22 6.47715 17.5229 2 12 2C6.47715 2 2 6.47715 2 12C2 17.5229 6.47715 22 12 22Z" stroke="#40A3FF" stroke-width="2" stroke-linejoin="round"/>
<path d="M13.0501 14.4089H10.8955L10.1182 17.6235H8.08641L7.35004 14.4228H5.6864V13.2678H7.09095L6.85913 12.2102H5.6864V11.0552H6.5864L5.87731 7.91016H7.65004L8.29095 11.0552H10.2819L11.0319 7.91016H13.0091L13.7591 11.0552H15.7637L16.4182 7.91016H18.1364L17.4001 11.0552H18.3137V12.2102H17.1273L16.8819 13.2678H18.3137V14.4228H16.6092L15.8455 17.6235H13.8137L13.0501 14.4089ZM9.91368 12.6277L10.0228 12.1545H8.50914L8.59095 12.6416L9.19096 15.5917H9.23186L9.91368 12.6277ZM14.8364 15.5917L15.4364 12.6555L15.5455 12.1545H14.0046L14.1137 12.5998L14.7955 15.5917H14.8364ZM11.1546 13.3095H12.791L12.6546 12.7251L12.0001 9.88622H11.9591L11.291 12.7251L11.1546 13.3095Z" fill="#40A3FF"/>
</svg>
