<svg width="24" height="24" viewBox="0 0 24 24" fill="none" xmlns="http://www.w3.org/2000/svg">
<path d="M12 22C17.5229 22 22 17.5229 22 12C22 6.47715 17.5229 2 12 2C6.47715 2 2 6.47715 2 12C2 17.5229 6.47715 22 12 22Z" stroke="#FFCD04" stroke-width="2" stroke-linejoin="round"/>
<path d="M8.04327 15L8.24512 13.8845C8.7368 13.8898 9.13274 13.8765 9.43292 13.8446C9.73829 13.8074 9.9686 13.741 10.1239 13.6454C10.2843 13.5445 10.3878 13.4037 10.4344 13.2231C10.4862 13.0372 10.5043 12.8008 10.4888 12.5139L10.318 9H11.4048L11.5756 12.5697C11.6015 13.0531 11.5679 13.4542 11.4747 13.7729C11.3815 14.0863 11.2056 14.3333 10.9468 14.5139C10.688 14.6892 10.3231 14.8141 9.85215 14.8884C9.38117 14.9628 8.77821 15 8.04327 15ZM7.67062 13.1116L7.46877 12.3227C7.64992 12.2749 7.79743 12.2324 7.91129 12.1952C8.03033 12.158 8.11831 12.1208 8.17525 12.0837C8.23218 12.0465 8.26064 12.0093 8.26064 11.9721C8.26064 11.9243 8.23735 11.8738 8.19077 11.8207C8.14419 11.7676 8.09244 11.7065 8.0355 11.6375C7.97857 11.5684 7.92682 11.4914 7.88024 11.4064C7.83366 11.3214 7.81036 11.2231 7.81036 11.1116C7.81036 10.9788 7.84659 10.8539 7.91905 10.7371C7.99151 10.6149 8.10796 10.498 8.26841 10.3865C8.43403 10.2696 8.6514 10.1554 8.92054 10.0438L9.25436 10.753C9.03699 10.8433 8.88948 10.923 8.81185 10.992C8.73939 11.0558 8.70316 11.1169 8.70316 11.1753C8.70316 11.2231 8.72645 11.2789 8.77303 11.3426C8.81961 11.4064 8.87137 11.4781 8.9283 11.5578C8.99041 11.6321 9.04475 11.7171 9.09133 11.8127C9.13791 11.9031 9.1612 12.0013 9.1612 12.1076C9.1612 12.1926 9.14309 12.2802 9.10686 12.3705C9.07581 12.4608 9.00852 12.5485 8.90501 12.6335C8.80667 12.7185 8.65917 12.8008 8.46249 12.8805C8.26582 12.9602 8.00186 13.0372 7.67062 13.1116ZM8.04327 15C7.4843 15 7.01073 14.9548 6.62256 14.8645C6.23956 14.7795 5.92644 14.6574 5.68318 14.498C5.4451 14.3333 5.27172 14.1421 5.16303 13.9243C5.05434 13.7065 5 13.4675 5 13.2072C5 13.0372 5.01294 12.8672 5.03882 12.6972C5.06987 12.5219 5.1061 12.3519 5.14751 12.1873C5.19409 12.0226 5.23549 11.8738 5.27172 11.741L6.24215 11.9721C6.22145 12.0677 6.19816 12.1713 6.17228 12.2829C6.1464 12.3944 6.1257 12.5033 6.11017 12.6096C6.09464 12.7105 6.08688 12.8035 6.08688 12.8884C6.08688 13.085 6.15416 13.2603 6.28873 13.4143C6.42847 13.5631 6.6562 13.6799 6.97191 13.7649C7.28763 13.8446 7.71203 13.8845 8.24512 13.8845L8.40039 14.745L8.04327 15Z" fill="#FFCD04"/>
<path d="M13.1335 14.9203C12.9213 14.9203 12.7634 14.8672 12.6599 14.761C12.5616 14.6494 12.5124 14.5086 12.5124 14.3386V14.1952C12.5124 14.0252 12.5616 13.8845 12.6599 13.7729C12.7634 13.6614 12.9213 13.6056 13.1335 13.6056C13.3509 13.6056 13.5087 13.6614 13.607 13.7729C13.7054 13.8845 13.7546 14.0252 13.7546 14.1952V14.3386C13.7546 14.5086 13.7054 14.6494 13.607 14.761C13.5087 14.8672 13.3509 14.9203 13.1335 14.9203Z" fill="#FFCD04"/>
<path d="M14.5608 14.5139L14.9412 13.502C15.1327 13.587 15.3164 13.6507 15.4924 13.6932C15.6684 13.7357 15.8444 13.757 16.0203 13.757C16.2015 13.757 16.3516 13.741 16.4706 13.7092C16.5948 13.672 16.688 13.6189 16.7501 13.5498C16.8122 13.4807 16.8432 13.3984 16.8432 13.3028C16.8432 13.2125 16.8148 13.0876 16.7579 12.9283C16.7061 12.7689 16.6103 12.5618 16.4706 12.3068C16.3309 12.0465 16.1264 11.7251 15.8573 11.3426L16.7811 10.7131C17.0296 11.0744 17.2444 11.4276 17.4255 11.7729C17.6067 12.1129 17.7464 12.4316 17.8447 12.7291C17.9482 13.0212 18 13.2789 18 13.502C18 13.7782 17.9275 14.0199 17.7826 14.2271C17.6429 14.429 17.4333 14.5883 17.1538 14.7052C16.8795 14.822 16.5405 14.8805 16.1368 14.8805C15.9867 14.8805 15.8185 14.8672 15.6322 14.8406C15.4458 14.8141 15.2569 14.7742 15.0654 14.7211C14.8791 14.668 14.7109 14.5989 14.5608 14.5139Z" fill="#FFCD04"/>
</svg>
