<svg width="24" height="24" viewBox="0 0 24 24" fill="none" xmlns="http://www.w3.org/2000/svg">
<path d="M12 22C17.5229 22 22 17.5229 22 12C22 6.47715 17.5229 2 12 2C6.47715 2 2 6.47715 2 12C2 17.5229 6.47715 22 12 22Z" stroke="#40A3FF" stroke-width="2" stroke-linejoin="round"/>
<path d="M7.20359 15H6V9H8.8722C9.16398 9 9.42537 9.04298 9.65636 9.12894C9.88735 9.2149 10.0819 9.34097 10.2399 9.50716C10.404 9.66762 10.5287 9.86246 10.6138 10.0917C10.7049 10.3209 10.7505 10.5759 10.7505 10.8567C10.7505 11.2693 10.6502 11.6246 10.4496 11.9226C10.2551 12.2206 9.9603 12.4327 9.56518 12.5587L10.8691 15H9.52871L8.34335 12.6877H7.20359V15ZM8.75367 11.7335C8.98466 11.7335 9.16702 11.6762 9.30076 11.5616C9.43449 11.4413 9.50135 11.2722 9.50135 11.0544V10.659C9.50135 10.4413 9.43449 10.2751 9.30076 10.1605C9.16702 10.0458 8.98466 9.98854 8.75367 9.98854H7.20359V11.7335H8.75367Z" fill="#40A3FF"/>
<path d="M16.8602 10.6934H16.8238L16.3314 11.6476L15.0275 13.9169L13.7236 11.6476L13.2312 10.6934H13.1948V15H12.055V9H13.4136L15.0457 11.9312H15.0822L16.6961 9H18V15H16.8602V10.6934Z" fill="#40A3FF"/>
</svg>
