<svg width="24" height="24" viewBox="0 0 24 24" fill="none" xmlns="http://www.w3.org/2000/svg">
<path d="M12 22C17.5229 22 22 17.5229 22 12C22 6.47715 17.5229 2 12 2C6.47715 2 2 6.47715 2 12C2 17.5229 6.47715 22 12 22Z" stroke="#FF6868" stroke-width="2" stroke-linejoin="round"/>
<path d="M11.9847 14.0587H9.61667V17.3682H7.81389V14.073H6.5V12.8839H7.81389V11.7951H6.5V10.606H7.81389V7.36816H10.1208L11.9542 10.606H14.3986V7.36816H16.1861V10.606H17.5V11.7951H16.1861V12.8839H17.5V14.073H16.1861V17.3682H13.8486L11.9847 14.0587ZM11.3889 12.9412L9.6625 9.77504H9.61667V12.9412H11.3889ZM14.3528 15.0043H14.3986V11.7378H12.5653L14.3528 15.0043Z" fill="#FF6868"/>
</svg>
