<svg width="24" height="24" viewBox="0 0 24 24" fill="none" xmlns="http://www.w3.org/2000/svg">
<path d="M12 22C17.5229 22 22 17.5229 22 12C22 6.47715 17.5229 2 12 2C6.47715 2 2 6.47715 2 12C2 17.5229 6.47715 22 12 22Z" stroke="#FFCD04" stroke-width="2" stroke-linejoin="round"/>
<path d="M6.27586 15.5V14.7773C5.86312 14.7448 5.51555 14.65 5.23315 14.493C4.95075 14.3306 4.70637 14.1303 4.5 13.8921L5.15984 13.2912C5.31733 13.4753 5.49383 13.6268 5.68934 13.7459C5.88485 13.8596 6.10479 13.9327 6.34918 13.9652V12.3167C5.75179 12.1922 5.32005 12.0027 5.05394 11.7483C4.79326 11.4884 4.66292 11.1582 4.66292 10.7575C4.66292 10.3244 4.80412 9.97796 5.08652 9.7181C5.36892 9.45282 5.76537 9.29041 6.27586 9.23086V8.5H7.08233V9.23086C7.42447 9.26875 7.71773 9.35267 7.96212 9.4826C8.21193 9.61253 8.42916 9.79118 8.61381 10.0186L7.94582 10.5951C7.83721 10.4652 7.70687 10.3515 7.55481 10.2541C7.40818 10.1566 7.22625 10.0862 7.00902 10.0429V11.5534C7.59011 11.6887 8.01642 11.8782 8.28796 12.1218C8.5595 12.36 8.69527 12.6903 8.69527 13.1125C8.69527 13.5294 8.5595 13.8894 8.28796 14.1926C8.01642 14.4903 7.61455 14.6771 7.08233 14.7529V15.5H6.27586ZM5.64861 10.7169C5.64861 10.9064 5.70292 11.0526 5.81153 11.1555C5.92558 11.2583 6.10479 11.3422 6.34918 11.4072V10.0348C5.88213 10.116 5.64861 10.3434 5.64861 10.7169ZM7.71773 13.1856C7.71773 13.0232 7.66614 12.8824 7.56295 12.7633C7.4652 12.6388 7.28055 12.5387 7.00902 12.4629V13.9571C7.23711 13.9084 7.41089 13.8163 7.53037 13.681C7.65528 13.5402 7.71773 13.3751 7.71773 13.1856Z" fill="#FFCD04"/>
<path d="M11.3722 11.9269L10.7857 10.7494H10.7612V14.8341H9.74294V9.16589H10.9241L12.6348 12.0731L13.2214 13.2506H13.2458V9.16589H14.2641V14.8341H13.0829L11.3722 11.9269Z" fill="#FFCD04"/>
<path d="M19.5 14.8341H15.2396V13.8759L18.1803 10.116H15.3862V9.16589H19.4185V10.1241L16.4696 13.884H19.5V14.8341Z" fill="#FFCD04"/>
</svg>
