<svg width="24" height="24" viewBox="0 0 24 24" fill="none" xmlns="http://www.w3.org/2000/svg">
<path d="M12 22C17.5229 22 22 17.5229 22 12C22 6.47715 17.5229 2 12 2C6.47715 2 2 6.47715 2 12C2 17.5229 6.47715 22 12 22Z" stroke="#0DC665" stroke-width="2" stroke-linejoin="round"/>
<path d="M10.808 18H8.69601V12.928H7.32001V11.712H8.69601V10.48H7.32001V9.26403H8.69601V6.83203H12.968C13.7787 6.83203 14.44 7.02403 14.952 7.40803C15.464 7.79203 15.8213 8.4107 16.024 9.26403H17.576V10.48H16.184C16.1947 10.576 16.2 10.672 16.2 10.768C16.2 10.864 16.2 10.9654 16.2 11.072C16.2 11.1894 16.2 11.3014 16.2 11.408C16.2 11.504 16.1947 11.6054 16.184 11.712H17.576V12.928H15.992C15.7787 13.7387 15.416 14.352 14.904 14.768C14.4027 15.1734 13.7573 15.376 12.968 15.376H10.808V18ZM10.808 9.34403H14.04C13.9653 9.0347 13.816 8.78936 13.592 8.60803C13.3787 8.41603 13.1013 8.32003 12.76 8.32003H10.808V9.34403ZM14.104 11.76V10.432H10.808V11.76H14.104ZM12.76 13.92C13.1013 13.92 13.384 13.824 13.608 13.632C13.832 13.44 13.976 13.1787 14.04 12.848H10.808V13.92H12.76Z" fill="#0DC665"/>
</svg>
