<svg width="24" height="24" viewBox="0 0 24 24" fill="none" xmlns="http://www.w3.org/2000/svg">
<path d="M12 22C17.5229 22 22 17.5229 22 12C22 6.47715 17.5229 2 12 2C6.47715 2 2 6.47715 2 12C2 17.5229 6.47715 22 12 22Z" stroke="#FFCD04" stroke-width="2" stroke-linejoin="round"/>
<path d="M7 17V15.6216L10.497 11.3108H7.11614V9.94595H12.4326V11.2838L8.90979 15.6216H12.5229V17H7Z" fill="#FFCD04"/>
<path d="M16.5613 17H15.6838C15.116 17 14.6945 16.8514 14.4192 16.5541C14.1525 16.2568 14.0192 15.8378 14.0192 15.2973V12.8919L13.0514 13.2297V11.9189L14.0192 11.5811V7H15.6709V11.0135L17 10.5541V11.8649L15.6709 12.3243V15.6216H16.5613V17Z" fill="#FFCD04"/>
</svg>
