<svg width="24" height="24" viewBox="0 0 24 24" fill="none" xmlns="http://www.w3.org/2000/svg">
<path d="M12 22C17.5229 22 22 17.5229 22 12C22 6.47715 17.5229 2 12 2C6.47715 2 2 6.47715 2 12C2 17.5229 6.47715 22 12 22Z" stroke="#40A3FF" stroke-width="2" stroke-linejoin="round"/>
<path d="M11.488 16.208V18H9.376V16.208H8V14.704H9.376V13.328H8V11.808H9.376V6.83203H14.192C15.2267 6.83203 16.032 7.1147 16.608 7.68003C17.1947 8.24536 17.488 9.04536 17.488 10.08C17.488 11.104 17.1947 11.904 16.608 12.48C16.032 13.0454 15.2267 13.328 14.192 13.328H11.488V14.704H15.2V16.208H11.488ZM11.488 11.808H13.984C14.4 11.808 14.72 11.696 14.944 11.472C15.1787 11.248 15.296 10.9334 15.296 10.528V9.77603C15.296 9.3707 15.1787 9.07203 14.944 8.88003C14.7093 8.67736 14.3893 8.57603 13.984 8.57603H11.488V11.808Z" fill="#40A3FF"/>
</svg>
