<svg width="24" height="24" viewBox="0 0 24 24" fill="none" xmlns="http://www.w3.org/2000/svg">
<path d="M12 22C17.5229 22 22 17.5229 22 12C22 6.47715 17.5229 2 12 2C6.47715 2 2 6.47715 2 12C2 17.5229 6.47715 22 12 22Z" stroke="#40A3FF" stroke-width="2" stroke-linejoin="round"/>
<path d="M7.22907 15C6.89154 15 6.58683 14.9598 6.31494 14.8793C6.04304 14.8035 5.80865 14.6875 5.61176 14.5313C5.41487 14.375 5.26252 14.1809 5.1547 13.9489C5.05157 13.7216 5 13.4564 5 13.1534C5 13.0445 5.00938 12.9167 5.02813 12.7699C5.04688 12.6231 5.08204 12.4574 5.1336 12.2727C5.18517 12.0833 5.26252 11.8726 5.36565 11.6406L6.23056 11.946C6.17899 12.0928 6.13446 12.2277 6.09695 12.3509C6.05945 12.4692 6.03132 12.5805 6.01257 12.6847C5.99382 12.7841 5.98445 12.8835 5.98445 12.983C5.98445 13.1676 6.02664 13.3381 6.11102 13.4943C6.1954 13.6506 6.33135 13.7737 6.51886 13.8636C6.70637 13.9583 6.95248 14.0057 7.25719 14.0057C7.53846 14.0057 7.77285 13.9725 7.96037 13.9063C8.14788 13.8447 8.29555 13.7571 8.40337 13.6435C8.51119 13.5346 8.58854 13.4067 8.63542 13.2599C8.68229 13.1132 8.70573 12.9545 8.70573 12.7841C8.70573 12.6515 8.68933 12.5024 8.65651 12.3366C8.62838 12.1709 8.58619 11.991 8.52994 11.7969C8.47369 11.598 8.4104 11.3897 8.34008 11.1719L9.32453 10.9162C9.37141 11.0961 9.40891 11.25 9.43704 11.3778C9.46985 11.5057 9.49798 11.6122 9.52142 11.6974C9.54486 11.7779 9.56361 11.8442 9.57767 11.8963C9.62455 12.0384 9.6808 12.1473 9.74643 12.223C9.81675 12.294 9.8941 12.3414 9.97848 12.3651C10.0676 12.3887 10.166 12.4006 10.2738 12.4006C10.3629 12.4006 10.4449 12.3864 10.5199 12.358C10.5949 12.3295 10.6629 12.2704 10.7238 12.1804C10.7895 12.0857 10.8481 11.9413 10.8996 11.7472C10.9512 11.553 10.9981 11.2855 11.0403 10.9446L11.9685 11.0938C11.9497 11.2027 11.931 11.3187 11.9122 11.4418C11.8935 11.5649 11.8771 11.6809 11.863 11.7898C11.8489 11.8939 11.8419 11.9792 11.8419 12.0455C11.8419 12.107 11.8583 12.1638 11.8911 12.2159C11.9286 12.268 11.9943 12.3106 12.088 12.3438C12.1818 12.3769 12.3154 12.3935 12.4888 12.3935C12.6154 12.3935 12.7256 12.3816 12.8193 12.358C12.9131 12.3295 12.9857 12.2798 13.0373 12.2088C13.0889 12.133 13.1146 12.0265 13.1146 11.8892C13.1146 11.7708 13.0959 11.6288 13.0584 11.4631C13.0209 11.2926 12.9717 11.108 12.9107 10.9091C12.8545 10.7102 12.7888 10.5066 12.7138 10.2983L13.7053 10C13.7803 10.2036 13.8459 10.4214 13.9022 10.6534C13.9631 10.8807 14.01 11.1032 14.0428 11.321C14.0803 11.5341 14.0991 11.7211 14.0991 11.8821C14.0991 12.133 14.0616 12.3532 13.9866 12.5426C13.9163 12.732 13.8108 12.8906 13.6702 13.0185C13.5342 13.1416 13.3678 13.2339 13.1709 13.2955C12.974 13.357 12.7537 13.3878 12.5099 13.3878C12.3318 13.3878 12.1677 13.3688 12.0177 13.331C11.8724 13.2884 11.7458 13.2292 11.638 13.1534C11.5348 13.0777 11.4551 12.9853 11.3989 12.8764C11.3426 12.7628 11.3169 12.6349 11.3215 12.4929H11.5606C11.4903 12.7533 11.3942 12.9474 11.2723 13.0753C11.1504 13.2031 11.0145 13.2884 10.8645 13.331C10.7145 13.3688 10.5621 13.3878 10.4074 13.3878C10.2855 13.3878 10.1683 13.3759 10.0558 13.3523C9.94332 13.3286 9.84019 13.2907 9.74643 13.2386C9.65736 13.1818 9.58002 13.1084 9.51439 13.0185C9.44876 12.9238 9.40422 12.8101 9.38078 12.6776L9.64096 12.9616C9.63158 13.2836 9.5683 13.5701 9.4511 13.821C9.3339 14.072 9.16983 14.285 8.95888 14.4602C8.75261 14.6354 8.50181 14.768 8.20648 14.858C7.91583 14.9527 7.59003 15 7.22907 15Z" fill="#40A3FF"/>
<path d="M15.4992 13.4304C15.307 13.4304 15.1641 13.383 15.0703 13.2884C14.9812 13.1889 14.9367 13.0634 14.9367 12.9119V12.7841C14.9367 12.6326 14.9812 12.5071 15.0703 12.4077C15.1641 12.3082 15.307 12.2585 15.4992 12.2585C15.6961 12.2585 15.8391 12.3082 15.9282 12.4077C16.0172 12.5071 16.0618 12.6326 16.0618 12.7841V12.9119C16.0618 13.0634 16.0172 13.1889 15.9282 13.2884C15.8391 13.383 15.6961 13.4304 15.4992 13.4304Z" fill="#40A3FF"/>
<path d="M16.6584 14.9858L16.2998 14.0767C16.703 13.9347 17.0288 13.7784 17.2772 13.608C17.5304 13.4375 17.7155 13.2552 17.8327 13.0611C17.9546 12.867 18.0156 12.6657 18.0156 12.4574C18.0156 12.3248 17.9968 12.1875 17.9593 12.0455C17.9218 11.8987 17.8679 11.7448 17.7976 11.5838C17.7319 11.4228 17.6522 11.2547 17.5585 11.0795L18.4797 10.6321C18.6437 10.9493 18.7703 11.2524 18.8594 11.5412C18.9531 11.83 19 12.0999 19 12.3509C19 12.5829 18.9695 12.8054 18.9086 13.0185C18.8523 13.2315 18.7633 13.4304 18.6414 13.6151C18.5242 13.8045 18.3718 13.982 18.1843 14.1477C17.9968 14.3134 17.7765 14.465 17.5233 14.6023C17.2702 14.7443 16.9819 14.8722 16.6584 14.9858Z" fill="#40A3FF"/>
</svg>
