<svg width="24" height="24" viewBox="0 0 24 24" fill="none" xmlns="http://www.w3.org/2000/svg">
<path d="M12 22C17.5229 22 22 17.5229 22 12C22 6.47715 17.5229 2 12 2C6.47715 2 2 6.47715 2 12C2 17.5229 6.47715 22 12 22Z" stroke="#40A3FF" stroke-width="2" stroke-linejoin="round"/>
<path d="M7 7.5H8.63621V12.9243H8.70013L9.58215 11.7811L11.0778 10.1514H12.9313L10.6303 12.6081L13.1741 16.5H11.2311L9.51823 13.6541L8.63621 14.5662V16.5H7V7.5Z" fill="#40A3FF"/>
<path d="M14.1779 16.5V10.1514H15.8141V11.4649H15.878C15.9206 11.2946 15.9846 11.1324 16.0698 10.9784C16.1635 10.8162 16.2828 10.6743 16.4277 10.5527C16.5726 10.4311 16.743 10.3338 16.939 10.2608C17.1435 10.1878 17.3779 10.1514 17.6421 10.1514H18V11.623H17.4887C16.9348 11.623 16.5172 11.7 16.236 11.8541C15.9547 12.0081 15.8141 12.2595 15.8141 12.6081V16.5H14.1779Z" fill="#40A3FF"/>
</svg>
