<svg width="24" height="24" viewBox="0 0 24 24" fill="none" xmlns="http://www.w3.org/2000/svg">
<path d="M12 22C17.5229 22 22 17.5229 22 12C22 6.47715 17.5229 2 12 2C6.47715 2 2 6.47715 2 12C2 17.5229 6.47715 22 12 22Z" stroke="#FFCD04" stroke-width="2" stroke-linejoin="round"/>
<path d="M8.50357 16.1879C7.81044 16.1879 7.22128 16.0642 6.73608 15.8167C6.25859 15.5692 5.84657 15.2444 5.5 14.8422L6.52814 13.8445C6.8054 14.1694 7.11346 14.4169 7.45232 14.587C7.79889 14.7572 8.18011 14.8422 8.59599 14.8422C9.06578 14.8422 9.42004 14.7417 9.65879 14.5406C9.89753 14.3318 10.0169 14.0534 10.0169 13.7053C10.0169 13.4346 9.93989 13.2142 9.78586 13.0441C9.63183 12.8739 9.34303 12.7502 8.91945 12.6729L8.157 12.5568C6.5474 12.3016 5.7426 11.5166 5.7426 10.2019C5.7426 9.83836 5.80806 9.50967 5.93898 9.21578C6.07761 8.92189 6.274 8.67053 6.52814 8.46172C6.78229 8.2529 7.0865 8.09435 7.44077 7.98608C7.80274 7.87007 8.21091 7.81206 8.6653 7.81206C9.27371 7.81206 9.80512 7.91261 10.2595 8.11369C10.7139 8.31477 11.1028 8.61253 11.4263 9.00696L10.3866 9.99304C10.1863 9.74555 9.94374 9.54447 9.65879 9.38979C9.37383 9.23511 9.01572 9.15777 8.58443 9.15777C8.14545 9.15777 7.81429 9.24285 7.59095 9.41299C7.37531 9.57541 7.26748 9.80742 7.26748 10.109C7.26748 10.4184 7.35605 10.6466 7.53319 10.7935C7.71032 10.9404 7.99527 11.0487 8.38805 11.1183L9.13894 11.2575C9.95529 11.4045 10.556 11.6674 10.9411 12.0464C11.3339 12.4176 11.5302 12.9397 11.5302 13.6125C11.5302 13.9992 11.4609 14.3511 11.3223 14.6682C11.1914 14.9776 10.995 15.2483 10.7331 15.4803C10.479 15.7046 10.1632 15.8786 9.78586 16.0023C9.41619 16.1261 8.98876 16.1879 8.50357 16.1879Z" fill="#FFCD04"/>
<path d="M15.069 17V15.9675C14.4837 15.9211 13.9908 15.7858 13.5903 15.5615C13.1898 15.3295 12.8433 15.0433 12.5506 14.703L13.4864 13.8445C13.7097 14.1075 13.96 14.3241 14.2372 14.4942C14.5145 14.6566 14.8264 14.761 15.173 14.8074V12.4524C14.3258 12.2746 13.7135 12.0039 13.3362 11.6404C12.9665 11.2691 12.7817 10.7974 12.7817 10.2251C12.7817 9.60634 12.9819 9.11137 13.3824 8.74014C13.7829 8.36118 14.3451 8.12916 15.069 8.04408V7H16.2127V8.04408C16.6979 8.09822 17.1137 8.2181 17.4603 8.40371C17.8146 8.58933 18.1226 8.84455 18.3845 9.16937L17.4372 9.99304C17.2832 9.80742 17.0983 9.64501 16.8827 9.5058C16.6748 9.36659 16.4168 9.26605 16.1087 9.20418V11.3619C16.9328 11.5553 17.5373 11.826 17.9224 12.174C18.3075 12.5143 18.5 12.9861 18.5 13.5893C18.5 14.1848 18.3075 14.6991 17.9224 15.1323C17.5373 15.5576 16.9674 15.8244 16.2127 15.9327V17H15.069ZM14.1795 10.1671C14.1795 10.4377 14.2565 10.6466 14.4105 10.7935C14.5723 10.9404 14.8264 11.0603 15.173 11.1531V9.19258C14.5106 9.30858 14.1795 9.63341 14.1795 10.1671ZM17.1137 13.6937C17.1137 13.4617 17.0406 13.2606 16.8942 13.0905C16.7556 12.9126 16.4938 12.7695 16.1087 12.6613V14.7958C16.4322 14.7262 16.6786 14.5947 16.848 14.4014C17.0252 14.2003 17.1137 13.9644 17.1137 13.6937Z" fill="#FFCD04"/>
</svg>
