<svg width="24" height="24" viewBox="0 0 24 24" fill="none" xmlns="http://www.w3.org/2000/svg">
<path d="M12 22C17.5229 22 22 17.5229 22 12C22 6.47715 17.5229 2 12 2C6.47715 2 2 6.47715 2 12C2 17.5229 6.47715 22 12 22Z" stroke="#FFCD04" stroke-width="2" stroke-linejoin="round"/>
<path d="M12.72 18.888H11.136V17.16H8V6.632H11.136V5H12.72V6.632H13.248C14.1333 6.632 14.8267 6.87733 15.328 7.368C15.8293 7.85867 16.08 8.51467 16.08 9.336C16.08 10.072 15.904 10.6107 15.552 10.952C15.2107 11.2933 14.72 11.5067 14.08 11.592V11.688C14.4 11.72 14.704 11.784 14.992 11.88C15.28 11.976 15.5307 12.12 15.744 12.312C15.968 12.504 16.144 12.7493 16.272 13.048C16.4107 13.3467 16.48 13.7093 16.48 14.136C16.48 14.552 16.4107 14.9467 16.272 15.32C16.1333 15.6827 15.936 16.0027 15.68 16.28C15.4347 16.5467 15.1413 16.76 14.8 16.92C14.4693 17.08 14.1067 17.16 13.712 17.16H12.72V18.888ZM11.248 11.016V8.344H10V11.016H11.248ZM12.624 11.016H12.864C13.6213 11.016 14 10.6533 14 9.928V9.448C14 8.712 13.6213 8.344 12.864 8.344H12.624V11.016ZM11.248 15.448V12.664H10V15.448H11.248ZM12.624 15.448H13.152C13.536 15.448 13.84 15.352 14.064 15.16C14.288 14.968 14.4 14.6853 14.4 14.312V13.784C14.4 13.4213 14.288 13.144 14.064 12.952C13.84 12.76 13.536 12.664 13.152 12.664H12.624V15.448Z" fill="#FFCD04"/>
</svg>
