<svg width="24" height="24" viewBox="0 0 24 24" fill="none" xmlns="http://www.w3.org/2000/svg">
<path d="M12 22C17.5229 22 22 17.5229 22 12C22 6.47715 17.5229 2 12 2C6.47715 2 2 6.47715 2 12C2 17.5229 6.47715 22 12 22Z" stroke="#FF6868" stroke-width="2" stroke-linejoin="round"/>
<path d="M9.44 14.016L8 14.704V13.36L9.44 12.672V11.472L8 12.176V10.832L9.44 10.144V6.41602H11.552V9.13602L14.288 7.84002V9.18402L11.552 10.48V11.664L14.288 10.384V11.712L11.552 13.008V15.856H12.624C13.392 15.856 13.9733 15.616 14.368 15.136C14.7733 14.656 14.976 13.8453 14.976 12.704H16.992C16.992 13.3867 16.9067 14.0267 16.736 14.624C16.576 15.2107 16.3253 15.728 15.984 16.176C15.6533 16.6133 15.2267 16.96 14.704 17.216C14.192 17.4613 13.5787 17.584 12.864 17.584H9.44V14.016Z" fill="#FF6868"/>
</svg>
