<svg width="24" height="24" viewBox="0 0 24 24" fill="none" xmlns="http://www.w3.org/2000/svg">
<path d="M12 22C17.5229 22 22 17.5229 22 12C22 6.47715 17.5229 2 12 2C6.47715 2 2 6.47715 2 12C2 17.5229 6.47715 22 12 22Z" stroke="#FFCD04" stroke-width="2" stroke-linejoin="round"/>
<path d="M10.8273 9.23582H13.0443V9.61402H10.8273V9.23582ZM9.69545 8.62403V10.2258H14.2345V8.62403H9.69545ZM10.3839 12.0612H13.4761V12.406H10.3839V12.0612ZM10.3839 13.0067H13.4761V13.3626H10.3839V13.0067ZM10.3839 11.1379H13.4761V11.4716H10.3839V11.1379ZM9.21704 10.5261V13.9744H14.7013V10.5261H9.21704ZM10.5939 13.8521C10.1505 14.119 9.3804 14.3526 8.64527 14.5195C8.87865 14.6863 9.27538 15.0423 9.45041 15.2314C10.1855 14.9978 11.0723 14.5862 11.6091 14.1635L10.5939 13.8521ZM12.3209 14.2859C12.9743 14.564 13.6978 14.9533 14.0828 15.2314L15.238 14.7864C14.7363 14.4972 13.8611 14.0968 13.1377 13.8187L12.3209 14.2859ZM7 7V17H8.31855V8.20134H15.6114V17H17V7H7ZM7.82847 15.3426V16.5328H16.3699V15.3426H7.82847Z" fill="#FFCD04"/>
</svg>
