<svg width="24" height="24" viewBox="0 0 24 24" fill="none" xmlns="http://www.w3.org/2000/svg">
<path d="M12 22C17.5229 22 22 17.5229 22 12C22 6.47715 17.5229 2 12 2C6.47715 2 2 6.47715 2 12C2 17.5229 6.47715 22 12 22Z" stroke="#0DC665" stroke-width="2" stroke-linejoin="round"/>
<path d="M11.6642 19V5H12.4741V19H11.6642ZM13.8123 9.62109C13.7728 9.17995 13.6033 8.83724 13.3037 8.59297C13.0041 8.3487 12.5975 8.22656 12.084 8.22656C11.735 8.22656 11.4403 8.28125 11.2 8.39063C10.9597 8.49636 10.7753 8.64401 10.6469 8.83359C10.5218 9.02318 10.4593 9.23828 10.4593 9.47891C10.4527 9.67943 10.4905 9.85443 10.5728 10.0039C10.6584 10.1534 10.7753 10.2828 10.9235 10.3922C11.0716 10.4979 11.2428 10.5909 11.437 10.6711C11.6313 10.7477 11.8387 10.8133 12.0593 10.868L12.9679 11.1086C13.4091 11.218 13.814 11.3638 14.1827 11.5461C14.5514 11.7284 14.8708 11.9526 15.1407 12.2187C15.4107 12.4849 15.6198 12.7984 15.7679 13.1594C15.9193 13.5203 15.9967 13.9341 16 14.4008C15.9967 15.0862 15.8387 15.6805 15.5259 16.1836C15.2165 16.6831 14.7687 17.0714 14.1827 17.3484C13.6 17.6219 12.8971 17.7586 12.0741 17.7586C11.2576 17.7586 10.5465 17.6201 9.94074 17.343C9.33827 17.0659 8.86749 16.6557 8.5284 16.1125C8.19259 15.5656 8.01646 14.8893 8 14.0836H10.0691C10.0922 14.4591 10.1893 14.7727 10.3605 15.0242C10.535 15.2721 10.7671 15.4599 11.0568 15.5875C11.3498 15.7115 11.6807 15.7734 12.0494 15.7734C12.4115 15.7734 12.7259 15.7151 12.9926 15.5984C13.2626 15.4818 13.4716 15.3195 13.6198 15.1117C13.7679 14.9039 13.842 14.6651 13.842 14.3953C13.842 14.1438 13.7745 13.9323 13.6395 13.7609C13.5078 13.5896 13.3136 13.4438 13.0568 13.3234C12.8033 13.2031 12.4922 13.0938 12.1235 12.9953L11.0222 12.6891C10.1695 12.4594 9.4963 12.1003 9.00247 11.6117C8.50864 11.1232 8.26337 10.4651 8.26667 9.6375C8.26337 8.95937 8.42634 8.36693 8.75556 7.86016C9.08807 7.35339 9.54403 6.95781 10.1235 6.67344C10.7029 6.38906 11.3613 6.24688 12.0988 6.24688C12.8494 6.24688 13.5045 6.38906 14.0642 6.67344C14.6272 6.95781 15.065 7.35339 15.3778 7.86016C15.6905 8.36693 15.8519 8.95391 15.8617 9.62109H13.8123Z" fill="#0DC665"/>
</svg>
