<svg width="24" height="24" viewBox="0 0 24 24" fill="none" xmlns="http://www.w3.org/2000/svg">
<path d="M12 22C17.5229 22 22 17.5229 22 12C22 6.47715 17.5229 2 12 2C6.47715 2 2 6.47715 2 12C2 17.5229 6.47715 22 12 22Z" stroke="#FFCD04" stroke-width="2" stroke-linejoin="round"/>
<path d="M12.5504 7.9076H10.7473V6.68598H12.5504V6H14.2175V6.68598H14.8809V7.9076H14.2175V15.6226H12.6695V14.5983C12.1592 15.3876 11.5014 15.7823 10.6962 15.7823C9.94208 15.7823 9.32118 15.4597 8.83354 14.8144C8.31187 14.1378 8.05103 13.2388 8.05103 12.1175C8.05103 10.9648 8.30336 10.0658 8.80802 9.42052C9.28433 8.80658 9.9194 8.49961 10.7132 8.49961C11.422 8.49961 12.0344 8.82224 12.5504 9.4675V7.9076ZM9.76063 11.9859C9.76063 12.7314 9.85419 13.2702 10.0413 13.6022C10.3078 14.0846 10.6849 14.3258 11.1725 14.3258C11.5751 14.3258 11.9012 14.1441 12.1507 13.7807C12.4172 13.3923 12.5504 12.8536 12.5504 12.1644C12.5504 10.6609 12.0855 9.90916 11.1555 9.90916C10.7416 9.90916 10.4099 10.0814 10.1604 10.426C9.89388 10.8019 9.76063 11.3218 9.76063 11.9859ZM8 18V16.769H15V18H8Z" fill="#FFCD04"/>
</svg>
